{"title":"Dorian.Gray.2009.SWESUB.DVDRip.XviD.AC3.(5.1).-Zen_Bud","uid":5708336,"size":1472140626,"categoryP":"video","categoryS":"movies","magnet":"?xt=urn:btih:23d235ecd82c6fe403baa8041a78e9b40b4a1a8f&amp;dn=Dorian.Gray.2009.SWESUB.DVDRip.XviD.AC3.%285.1%29.-Zen_Bud&amp;tr=udp%3A%2F%2Ftracker.openbittorrent.com%3A80&amp;tr=udp%3A%2F%2Fopen.demonii.com%3A1337&amp;tr=udp%3A%2F%2Ftracker.coppersurfer.tk%3A6969&amp;tr=udp%3A%2F%2Fexodus.desync.com%3A6969","seeders":1,"leechers":0,"uploader":null,"files":1,"time":1279787475,"description":"General\nComplete name                    : Dorian.Gray.2009.avi\nFormat                           : AVI\nFile size                        : 1.37 GiB\nDuration                         : 1h 47mn\nOverall bit rate                 : 1 823 Kbps\n\nVideo\n\nFormat                           : MPEG-4 Visual\nCodec ID/Hint                    : XviD\nDuration                         : 1h 47mn\nBit rate                         : 1 364 Kbps\nWidth                            : 716 pixels\nHeight                           : 556 pixels\nDisplay aspect ratio             : 16:9\nStream size                      : 1.03 GiB (75%)\nWriting library                  : XviD 1.1.2 (UTC 2006-11-01)\n\nAudio\n\nFormat                           : AC-3\nDuration                         : 1h 47mn\nBit rate                         : 448 Kbps\nChannel(s)                       : 6 channels\nChannel positions                : Front: L C R, Side: L R, LFE\nSampling rate                    : 48.0 KHz\nStream size                      : 345 MiB (25%)","torrent":{"xt":"urn:btih:23d235ecd82c6fe403baa8041a78e9b40b4a1a8f","amp;dn":"Dorian.Gray.2009.SWESUB.DVDRip.XviD.AC3.%285.1%29.-Zen_Bud","amp;tr":["udp%3A%2F%2Ftracker.openbittorrent.com%3A80","udp%3A%2F%2Fopen.demonii.com%3A1337","udp%3A%2F%2Ftracker.coppersurfer.tk%3A6969","udp%3A%2F%2Fexodus.desync.com%3A6969"],"infoHash":"23d235ecd82c6fe403baa8041a78e9b40b4a1a8f","infoHashBuffer":{"type":"Buffer","data":[35,210,53,236,216,44,111,228,3,186,168,4,26,120,233,180,11,74,26,143]},"announce":[],"urlList":[]}}